<svg viewBox="0 0 512 512" xmlns="http://www.w3.org/2000/svg"><path d="m512 256c0 141.386719-114.613281 256-256 256s-256-114.613281-256-256 114.613281-256 256-256 256 114.613281 256 256zm0 0" fill="#f92814"/><path d="m512 256c0-5.152344-.171875-10.261719-.46875-15.339844l-106.46875-106.464844-277.070312 265.5625 111.710937 111.710938c5.390625.339844 10.820313.53125 16.296875.53125 141.386719 0 256-114.613281 256-256zm0 0" fill="#db0404"/><path d="m448.5 256c0 106.316406-86.183594 192.5-192.5 192.5s-192.5-86.183594-192.5-192.5c0-106.3125 86.183594-192.5 192.5-192.5s192.5 86.1875 192.5 192.5zm0 0" fill="#414952"/><path d="m256 63.5c-.132812 0-.261719.003906-.394531.003906v384.992188c.132812 0 .261719.003906.394531.003906 106.316406 0 192.5-86.183594 192.5-192.5 0-106.3125-86.183594-192.5-192.5-192.5zm0 0" fill="#23272b"/><path d="m410.332031 280c0-33.6875-69.097656-61-154.332031-61s-154.332031 27.3125-154.332031 61 69.097656 61 154.332031 61 154.332031-27.3125 154.332031-61zm0 0" fill="#fff"/><path d="m256 219c-.132812 0-.261719.003906-.394531.003906v121.992188c.132812 0 .261719.003906.394531.003906 85.234375 0 154.332031-27.3125 154.332031-61s-69.097656-61-154.332031-61zm0 0" fill="#dce1eb"/><path d="m202.582031 283.25c0 15.050781-12.199219 27.25-27.25 27.25-15.046875 0-27.25-12.199219-27.25-27.25s12.203125-27.25 27.25-27.25c15.050781 0 27.25 12.199219 27.25 27.25zm0 0" fill="#414952"/><path d="m363.917969 283.25c0 15.050781-12.203125 27.25-27.25 27.25-15.050781 0-27.25-12.199219-27.25-27.25s12.199219-27.25 27.25-27.25c15.046875 0 27.25 12.199219 27.25 27.25zm0 0" fill="#23272b"/></svg>